<?xml version="1.0" encoding="UTF-8"?>
<svg id="Layer_2" data-name="Layer 2" xmlns="http://www.w3.org/2000/svg" viewBox="0 0 87.7 87.11">
  <defs>
    <style>
      .cls-1 {
        fill: #fff;
      }
    </style>
  </defs>
  <g id="Layer_1-2" data-name="Layer 1">
    <path class="cls-1" d="M87.64,84.08c-3.52-16.18-15.8-28.83-31.16-33.4,8.5-4.53,14.29-13.48,14.29-23.76C70.77,12.08,58.7,0,43.85,0S16.93,12.08,16.93,26.92c0,10.28,5.8,19.23,14.29,23.76C15.86,55.25,3.58,67.9,.06,84.08c-.29,1.35,.56,2.68,1.91,2.97,1.35,.29,2.68-.56,2.97-1.91,3.94-18.14,20.3-31.31,38.9-31.31s34.95,13.17,38.9,31.31c.25,1.17,1.29,1.97,2.44,1.97,.18,0,.35-.02,.53-.06,1.37-.29,2.23-1.62,1.93-2.97ZM21.94,26.92c0-12.08,9.83-21.92,21.92-21.92s21.92,9.83,21.92,21.92-9.83,21.92-21.92,21.92-21.92-9.83-21.92-21.92Z"/>
  </g>
</svg>