<?xml version="1.0" encoding="utf-8"?>
<!-- Generator: Adobe Illustrator 27.0.0, SVG Export Plug-In . SVG Version: 6.00 Build 0)  -->
<svg version="1.1" id="Layer_1" xmlns="http://www.w3.org/2000/svg" xmlns:xlink="http://www.w3.org/1999/xlink" x="0px" y="0px"
	 viewBox="0 0 1200 1200" style="enable-background:new 0 0 1200 1200;" xml:space="preserve">
<style type="text/css">
	.st0{fill:#FFFFFF;}
</style>
<path class="st0" d="M339.97,1320.88c-3.52-16.18-15.8-28.83-31.16-33.4c8.5-4.53,14.29-13.48,14.29-23.76
	c0-14.84-12.07-26.92-26.92-26.92c-14.84,0-26.92,12.08-26.92,26.92c0,10.28,5.8,19.23,14.29,23.76
	c-15.36,4.57-27.64,17.22-31.16,33.4c-0.29,1.35,0.56,2.68,1.91,2.97c1.35,0.29,2.68-0.56,2.97-1.91
	c3.94-18.14,20.3-31.31,38.9-31.31s34.95,13.17,38.9,31.31c0.25,1.17,1.29,1.97,2.44,1.97c0.18,0,0.35-0.02,0.53-0.06
	C339.41,1323.56,340.27,1322.23,339.97,1320.88z M274.27,1263.72c0-12.08,9.83-21.92,21.92-21.92s21.92,9.83,21.92,21.92
	s-9.83,21.92-21.92,21.92S274.27,1275.81,274.27,1263.72z"/>
</svg>
